<?xml version="1.0" encoding="UTF-8" standalone="no"?>
<!-- Created with Inkscape (http://www.inkscape.org/) -->

<svg
   width="336.01172"
   height="105.00952"
   viewBox="0 0 88.903101 27.783769"
   version="1.1"
   id="svg1"
   inkscape:version="1.3.2 (091e20ef0f, 2023-11-25)"
   sodipodi:docname="black-logo.svg"
   xml:space="preserve"
   inkscape:export-filename="../../../projects/BrainMade-org/docs/black-logo.svg"
   inkscape:export-xdpi="1428.5216"
   inkscape:export-ydpi="1428.5216"
   xmlns:inkscape="http://www.inkscape.org/namespaces/inkscape"
   xmlns:sodipodi="http://sodipodi.sourceforge.net/DTD/sodipodi-0.dtd"
   xmlns="http://www.w3.org/2000/svg"
   xmlns:svg="http://www.w3.org/2000/svg"><sodipodi:namedview
     id="namedview1"
     pagecolor="#ffffff"
     bordercolor="#000000"
     borderopacity="0.25"
     inkscape:showpageshadow="true"
     inkscape:pageopacity="0.0"
     inkscape:pagecheckerboard="true"
     inkscape:deskcolor="#d1d1d1"
     inkscape:document-units="mm"
     borderlayer="true"
     showgrid="false"
     inkscape:zoom="3.6154033"
     inkscape:cx="128.06317"
     inkscape:cy="44.116793"
     inkscape:window-width="3072"
     inkscape:window-height="1696"
     inkscape:window-x="0"
     inkscape:window-y="0"
     inkscape:window-maximized="1"
     inkscape:current-layer="layer1"
     labelstyle="below"
     inkscape:clip-to-page="false"><inkscape:grid
       id="grid1"
       units="mm"
       originx="-1903.4559"
       originy="-259.7179"
       spacingx="4.9999999"
       spacingy="4.9999999"
       empcolor="#0099e5"
       empopacity="0.30196078"
       color="#0099e5"
       opacity="0.14901961"
       empspacing="5"
       dotted="false"
       gridanglex="30"
       gridanglez="30"
       visible="false" /></sodipodi:namedview><defs
     id="defs1" /><g
     inkscape:label="Layer 1"
     inkscape:groupmode="layer"
     id="layer1"
     transform="translate(-1903.4559,-259.7179)"><g
       id="g3-6-5-4-22-3-2-5-3-2-2-7"
       transform="matrix(0.88871386,0,0,0.88871386,1986.2007,310.4483)"
       style="fill:#fefefe;fill-opacity:1;stroke:none;stroke-width:1.24722;stroke-dasharray:none;stroke-opacity:1"
       inkscape:export-filename="black-logo.png"
       inkscape:export-xdpi="857.10999"
       inkscape:export-ydpi="857.10999"><g
         id="g2-9-3-6-3-61-5-6-9-6-7-9-6"
         transform="translate(-63.165427,8.6885308)"
         style="fill:#fefefe;fill-opacity:1;stroke:none;stroke-width:1.24722;stroke-dasharray:none;stroke-opacity:1"><path
           d="M -9.3818454,-34.984412 H -20.824212 c -0.552285,0 -1,-0.447716 -1,-1 v -3 h -3.115947 c -0.552285,0 -1,-0.447716 -1,-1 v -4.171343 l -3.447,-1.718 c -0.538645,-0.268902 -0.719306,-0.949315 -0.385,-1.45 l 3.832,-5.75 v -1.7 c 0.0013,-6.07422 4.925783,-10.99765 11,-10.99765 6.0742161,0 10.9987046,4.92343 10.9999996,10.99765 -0.2467472,10.87342 -4.204739,9.190023 -4.3689902,13.304632 l -0.072696,5.484711 c -0.00366,0.276118 -0.1119288,0.526142 -0.2928932,0.707107 -0.1809644,0.180964 -0.4309645,0.292893 -0.7071066,0.292893 z m -10.4423666,-2 h 9.442366 l 0.11163,-5.682594 c -0.102553,-2.601106 4.5783172,-3.221492 4.3300566,-12.010667 -0.1403201,-4.967757 -4.030265,-9.093957 -8.9999996,-9.093957 -4.969734,0 -8.998829,4.028137 -9,8.997875 v 2 c -3.12e-4,0.197479 -0.05874,0.390499 -0.168,0.555 l -3.372,5.057 2.987,1.493 c 0.339052,0.169425 0.553177,0.515974 0.553,0.895 v 3.789343 h 3.115947 c 0.552285,0 1,0.447715 1,1 z"
           id="path1-5-94-2-1-0-6-1-4-0-0-3-5"
           style="fill:#fefefe;fill-opacity:1;stroke:none;stroke-width:1.24722;stroke-dasharray:none;stroke-opacity:1"
           sodipodi:nodetypes="ssscsscccccsccssscccsscccccccssc" /></g></g><g
       id="g3-9-6-9-9"
       transform="matrix(0.89804827,0,0,0.89804827,1889.0321,262.47158)"
       style="fill:#fefefe;fill-opacity:1;stroke:none;stroke-opacity:1"><g
         id="g6-2-0-4-3"
         transform="translate(8.3274651,-15.941644)"
         style="fill:#fefefe;fill-opacity:1;stroke:none;stroke-opacity:1"><path
           d="m 23.345961,35.391177 v -7.459282 c 0.04574,0 0.09148,0.0073 0.137225,0.0073 3.777633,-0.0049 6.593209,-3.485154 5.809201,-7.180538 -0.07516,-0.353276 -0.351147,-0.629258 -0.704423,-0.704423 -3.134684,-0.669475 -6.23409,1.272819 -6.998486,4.385718 -0.0091,-0.0091 -0.01647,-0.01921 -0.02561,-0.02836 -1.420651,-1.426268 -3.468264,-2.033696 -5.436863,-1.612854 -0.353276,0.07516 -0.629258,0.351148 -0.704423,0.704423 -0.783931,3.695019 2.031027,7.175034 5.808286,7.180538 0.09148,0 0.190286,-0.01098 0.285428,-0.01555 v 4.723028 z m 1.097802,-12.430494 c 0.828401,-0.829409 1.971105,-1.266325 3.141542,-1.201178 0.135018,2.451803 -1.889974,4.477223 -4.341805,4.342721 -0.06859,-1.170797 0.36847,-2.314748 1.200263,-3.141543 z m -6.112926,4.684869 c -0.83269,-0.826561 -1.271597,-1.970116 -1.205753,-3.141543 2.453263,-0.138246 4.480569,1.889488 4.341806,4.342721 -1.169154,0.06559 -2.310626,-0.37149 -3.136968,-1.201178 z"
           id="path1-0-6-7-7"
           sodipodi:nodetypes="cccccccccccccccccccccc"
           style="fill:#fefefe;fill-opacity:1;stroke:none;stroke-width:0.914835;stroke-opacity:1" /></g></g><path
       style="font-weight:bold;font-size:16.3998px;line-height:0;font-family:'Liberation Sans';-inkscape-font-specification:'Liberation Sans Bold';letter-spacing:0.00341667px;word-spacing:0.00170833px;fill:#fefefe;fill-opacity:1;stroke-width:0.433931"
       d="m 2054.7741,253.23173 q 0,1.53749 -1.1531,2.3783 -1.1531,0.84081 -3.2031,0.84081 h -5.6454 v -11.28287 h 5.1649 q 2.066,0 3.1231,0.72069 1.065,0.71269 1.065,2.11404 0,0.96092 -0.5365,1.62556 -0.5285,0.65664 -1.6176,0.88886 1.3693,0.16015 2.082,0.86483 0.7207,0.69667 0.7207,1.84978 z m -3.0269,-4.90872 q 0,-0.76074 -0.4885,-1.08105 -0.4804,-0.3203 -1.4334,-0.3203 h -2.6906 v 2.79469 h 2.7067 q 1.0009,0 1.4494,-0.34433 0.4564,-0.35234 0.4564,-1.04901 z m 0.6566,4.72455 q 0,-1.58553 -2.2742,-1.58553 h -2.9949 v 3.23512 h 3.083 q 1.1371,0 1.6576,-0.4084 0.5285,-0.4164 0.5285,-1.24119 z m 11.967,3.40328 -2.6186,-4.28413 h -2.7706 v 4.28413 h -2.3623 v -11.28287 h 5.6374 q 2.018,0 3.115,0.87284 1.0971,0.86483 1.0971,2.4904 0,1.18514 -0.6727,2.04997 -0.6726,0.85683 -1.8177,1.12909 l 3.0509,4.74057 z m -0.2803,-7.82354 q 0,-1.62557 -2.082,-1.62557 h -3.0269 v 3.33121 h 3.091 q 0.9929,0 1.5054,-0.44843 0.5125,-0.44843 0.5125,-1.25721 z m 12.3513,7.82354 -1.001,-2.88278 h -4.3001 l -1.001,2.88278 h -2.3622 l 4.1159,-11.28287 h 2.7867 l 4.1,11.28287 z m -3.155,-9.5452 -0.048,0.17617 q -0.08,0.28828 -0.1922,0.65663 -0.1121,0.36836 -1.3773,4.05191 h 3.2431 l -1.113,-3.24313 -0.3444,-1.08905 z m 7.0261,9.5452 v -11.28287 h 2.3623 v 11.28287 z m 11.4305,0 -4.9168,-8.68837 q 0.1442,1.26521 0.1442,2.03396 v 6.65441 h -2.098 v -11.28287 h 2.6986 l 4.9888,8.76044 q -0.1442,-1.20917 -0.1442,-2.20213 v -6.55831 h 2.098 v 11.28287 z"
       id="text4-3-2-7-3-7-9-9-2-9-9-26-8-4"
       transform="scale(0.94397775,1.059347)"
       aria-label="BRAIN" /><g
       id="g2-50-2"
       transform="matrix(0.76423858,0,0,0.76423858,435.69434,-133.70053)"
       style="fill:#fefefe;fill-opacity:1"><path
         style="font-weight:bold;font-size:22.0174px;line-height:0;font-family:'Liberation Sans';-inkscape-font-specification:'Liberation Sans Bold';letter-spacing:0.004587px;word-spacing:0.00229351px;fill:#fefefe;fill-opacity:1;stroke-width:0.582568"
         d="m 2022.6782,535.81805 v -9.18108 q 0,-0.31177 0,-0.62354 0.011,-0.31177 0.1075,-2.67692 -0.7633,2.89193 -1.1288,4.03151 l -2.7307,8.45003 h -2.2576 l -2.7307,-8.45003 -1.1503,-4.03151 q 0.129,2.49416 0.129,3.30046 v 9.18108 h -2.8167 v -15.14771 h 4.2465 l 2.7092,8.47154 0.2365,0.81705 0.5161,2.03188 0.6773,-2.42965 2.7844,-8.89082 h 4.225 v 15.14771 z m 16.4747,0 -1.3439,-3.87024 h -5.7731 l -1.3438,3.87024 h -3.1715 l 5.5259,-15.14771 h 3.7412 l 5.5044,15.14771 z m -4.2358,-12.81481 -0.064,0.23651 q -0.1075,0.38703 -0.258,0.88156 -0.1505,0.49453 -1.8492,5.43985 h 4.3541 l -1.4944,-4.35403 -0.4623,-1.46209 z m 22.9358,5.12808 q 0,2.34364 -0.9246,4.09601 -0.9138,1.74161 -2.6016,2.66617 -1.6772,0.92455 -3.8488,0.92455 h -6.1279 v -15.14771 h 5.4829 q 3.8272,0 5.9236,1.93512 2.0964,1.92438 2.0964,5.52586 z m -3.193,0 q 0,-2.44041 -1.2686,-3.71974 -1.2685,-1.29008 -3.6229,-1.29008 h -2.2469 v 10.2454 h 2.6876 q 2.0427,0 3.2468,-1.40834 1.204,-1.40834 1.204,-3.82724 z m 5.595,7.68673 v -15.14771 h 11.9117 v 2.45116 h -8.7403 v 3.80574 h 8.0845 v 2.45115 h -8.0845 v 3.98851 h 9.1811 v 2.45115 z m 14.7115,0 v -3.27895 h 3.1069 v 3.27895 z"
         id="text4-3-2-7-3-7-9-9-2-9-9-2-8-3-5"
         transform="scale(0.97317719,1.0275621)"
         aria-label="MADE." /><text
         xml:space="preserve"
         style="font-size:3.05527px;line-height:0;font-family:'FiraCode Nerd Font';-inkscape-font-specification:'FiraCode Nerd Font';letter-spacing:0.000636524px;word-spacing:0.000318262px;fill:#fefefe;fill-opacity:1;stroke:none;stroke-width:0.080841;stroke-dasharray:none;stroke-opacity:1"
         x="2116.6807"
         y="522.32397"
         id="text4-3-2-7-3-7-9-9-2-5-9-1-7"
         transform="scale(0.94891957,1.0538301)"><tspan
           sodipodi:role="line"
           id="tspan4-0-6-1-6-0-2-1-6-3-2-0-4"
           style="font-style:normal;font-variant:normal;font-weight:bold;font-stretch:normal;font-family:'Liberation Sans';-inkscape-font-specification:'Liberation Sans Bold';fill:#fefefe;fill-opacity:1;stroke:none;stroke-width:0.080841;stroke-dasharray:none;stroke-opacity:1"
           x="2116.6807"
           y="522.32397" /></text></g><g
       id="g2-5-6-4"
       transform="matrix(0.59611474,0,0,0.59611474,766.02441,-62.641422)"
       style="fill:#fefefe;fill-opacity:1"><path
         style="font-weight:bold;font-size:22.0174px;line-height:0;font-family:'Liberation Sans';-inkscape-font-specification:'Liberation Sans Bold';letter-spacing:0.004587px;word-spacing:0.00229351px;fill:#fefefe;fill-opacity:1;stroke-width:0.582568"
         d="m -588.26643,1994.1734 q 0,2.3652 -0.93531,4.1605 -0.93531,1.7954 -2.67692,2.7522 -1.74161,0.9461 -4.06376,0.9461 -3.56923,0 -5.60111,-2.0964 -2.02112,-2.1072 -2.02112,-5.7624 0,-3.6445 2.02112,-5.6871 2.02113,-2.0426 5.62261,-2.0426 3.60148,0 5.62261,2.0641 2.03188,2.0641 2.03188,5.6656 z m -3.23596,0 q 0,-2.4512 -1.16107,-3.838 -1.16108,-1.3976 -3.25746,-1.3976 -2.12863,0 -3.28971,1.3869 -1.16107,1.376 -1.16107,3.8487 0,2.4942 1.18257,3.9348 1.19333,1.4298 3.24671,1.4298 2.12864,0 3.27896,-1.3976 1.16107,-1.3976 1.16107,-3.967 z m 16.04461,7.6437 -3.51547,-5.7516 h -3.71974 v 5.7516 h -3.17145 v -15.1477 h 7.56848 q 2.70917,0 4.18202,1.1718 1.47284,1.1611 1.47284,3.3435 0,1.5911 -0.90306,2.7522 -0.90306,1.1503 -2.4404,1.5158 l 4.09601,6.3644 z m -0.37627,-10.5034 q 0,-2.1824 -2.79518,-2.1824 h -4.06376 v 4.4723 h 4.14976 q 1.33309,0 2.02113,-0.602 0.68805,-0.6021 0.68805,-1.6879 z m 13.06666,8.235 q 1.23633,0 2.39741,-0.3547 1.16107,-0.3656 1.79536,-0.9246 v -2.0964 h -3.69824 v -2.3436 h 6.60092 v 5.5688 q -1.20407,1.2364 -3.13919,1.9352 -1.92438,0.6988 -4.04226,0.6988 -3.69824,0 -5.68711,-2.0427 -1.98888,-2.0534 -1.98888,-5.8161 0,-3.7412 1.99963,-5.7301 1.99962,-1.9996 5.75161,-1.9996 5.33234,0 6.78368,3.9455 l -2.92418,0.8815 q -0.47303,-1.1503 -1.4836,-1.7416 -1.01056,-0.5913 -2.3759,-0.5913 -2.23614,0 -3.39721,1.3546 -1.16108,1.3546 -1.16108,3.881 0,2.5694 1.19333,3.9778 1.20408,1.3975 3.37571,1.3975 z"
         id="text4-3-2-7-3-7-9-9-2-9-9-2-8-9-3-3"
         transform="matrix(0,-0.97317719,1.0275621,0,0,0)"
         aria-label="ORG" /><text
         xml:space="preserve"
         style="font-size:3.05527px;line-height:0;font-family:'FiraCode Nerd Font';-inkscape-font-specification:'FiraCode Nerd Font';letter-spacing:0.000636524px;word-spacing:0.000318262px;fill:#fefefe;fill-opacity:1;stroke:none;stroke-width:0.080841;stroke-dasharray:none;stroke-opacity:1"
         x="2116.6807"
         y="522.32397"
         id="text4-3-2-7-3-7-9-9-2-5-9-2-0-7"
         transform="scale(0.94891957,1.0538301)"><tspan
           sodipodi:role="line"
           id="tspan4-0-6-1-6-0-2-1-6-3-2-8-6-8"
           style="font-style:normal;font-variant:normal;font-weight:bold;font-stretch:normal;font-family:'Liberation Sans';-inkscape-font-specification:'Liberation Sans Bold';fill:#fefefe;fill-opacity:1;stroke:none;stroke-width:0.080841;stroke-dasharray:none;stroke-opacity:1"
           x="2116.6807"
           y="522.32397" /></text></g></g></svg>
